HIERARCHY
ROOT Hips
{
	OFFSET 0.000000 0.000000 0.000000 
	CHANNELS 6 Xposition Yposition Zposition Zrotation Yrotation Xrotation
	JOINT LeftUpLeg
	{
		OFFSET 1.363060 -1.794630 0.839290 
		CHANNELS 3 Zrotation Yrotation Xrotation
		JOINT LeftLeg
		{
			OFFSET 2.448110 -6.726130 0.000000 
			CHANNELS 3 Zrotation Yrotation Xrotation
			JOINT LeftFoot
			{
				OFFSET 2.562200 -7.039590 0.000000 
				CHANNELS 3 Zrotation Yrotation Xrotation
				JOINT LeftToeBase
				{
					OFFSET 0.157640 -0.433110 2.322550 
					CHANNELS 3 Zrotation Yrotation Xrotation
					End Site
					{
						OFFSET 0.000000 0.000000 0.000000 
					}
				}
			}
		}
	}
	JOINT RightUpLeg
	{
		OFFSET -1.305520 -1.794630 0.839290 
		CHANNELS 3 Zrotation Yrotation Xrotation
		JOINT RightLeg
		{
			OFFSET -2.542530 -6.985550 0.000000 
			CHANNELS 3 Zrotation Yrotation Xrotation
			JOINT RightFoot
			{
				OFFSET -2.568260 -7.056230 0.000000 
				CHANNELS 3 Zrotation Yrotation Xrotation
				JOINT RightToeBase
				{
					OFFSET -0.164730 -0.452590 2.363150 
					CHANNELS 3 Zrotation Yrotation Xrotation
					End Site
					{
						OFFSET 0.000000 0.000000 0.000000 
					}
				}
			}
		}
	}
	JOINT Spine
	{
		OFFSET 0.028270 2.035590 -0.193380 
		CHANNELS 3 Zrotation Yrotation Xrotation
		JOINT Spine1
		{
			OFFSET 0.056720 2.048850 -0.042750 
			CHANNELS 3 Zrotation Yrotation Xrotation
			JOINT Neck1
			{
				OFFSET -0.054170 1.746240 0.172020 
				CHANNELS 3 Zrotation Yrotation Xrotation
				JOINT Head
				{
					OFFSET 0.104070 1.761360 -0.123970 
					CHANNELS 3 Zrotation Yrotation Xrotation
					End Site
					{
						OFFSET 0.000000 0.000000 0.000000 
					}
				}
			}
			JOINT LeftArm
			{
				OFFSET 3.362410 1.200890 -0.311210 
				CHANNELS 3 Zrotation Yrotation Xrotation
				JOINT LeftForeArm
				{
					OFFSET 4.983000 -0.000000 -0.000000 
					CHANNELS 3 Zrotation Yrotation Xrotation
					JOINT LeftHand
					{
						OFFSET 3.483560 -0.000000 -0.000000 
						CHANNELS 3 Zrotation Yrotation Xrotation
						JOINT LeftHandIndex1
						{
							OFFSET 0.715260 -0.000000 -0.000000 
							CHANNELS 3 Zrotation Yrotation Xrotation
							End Site
							{
								OFFSET 0.000000 0.000000 0.000000 
							}
						}
					}
				}
			}
			JOINT RightArm
			{
				OFFSET -3.136600 1.374050 -0.404650 
				CHANNELS 3 Zrotation Yrotation Xrotation
				JOINT RightForeArm
				{
					OFFSET -5.241900 -0.000000 -0.000000 
					CHANNELS 3 Zrotation Yrotation Xrotation
					JOINT RightHand
					{
						OFFSET -3.444170 -0.000000 -0.000000 
						CHANNELS 3 Zrotation Yrotation Xrotation
						JOINT RightHandIndex1
						{
							OFFSET -0.622530 -0.000000 -0.000000 
							CHANNELS 3 Zrotation Yrotation Xrotation
							End Site
							{
								OFFSET 0.000000 0.000000 0.000000 
							}
						}
					}
				}
			}
		}
	}
}
MOTION
Frames: 7
Frame Time: 0.041667
5.131765 17.379486 24.045591 -177.750061 -4.152405 -164.312182 -3.467813 6.763030 3.930528 -1.523553 0.107696 2.005500 -7.074740 20.325958 -1.006194 0.342300 -3.759300 -10.400400 13.171383 18.836862 -28.068806 -4.114268 -14.022377 41.759608 0.080685 -3.006720 -6.455417 -0.009000 0.613100 -1.684900 0.746453 -2.551638 -5.577526 -7.978083 -1.865265 1.724975 11.230765 -10.911631 16.727869 6.455400 -4.323800 7.908100 -75.204958 -11.973313 41.538433 15.435921 -30.801408 -5.429973 -0.330459 -0.583710 -10.418628 -7.125000 0.000000 0.000000 85.554817 4.955602 63.283845 -43.166709 50.190552 -19.278376 0.294819 0.157285 -2.516255 7.125000 0.000000 0.000000 
5.110162 17.366354 24.010857 -177.907878 -4.232289 -164.129020 -3.665315 6.868479 3.865316 -1.533421 0.097578 2.008591 -7.035255 20.227294 -1.122621 0.338800 -3.740400 -10.347300 12.933109 18.735843 -28.179794 -4.149652 -14.072662 41.885712 -0.025222 -2.776482 -6.796222 -0.011700 0.699700 -1.922800 0.782436 -2.485708 -5.556673 -7.881045 -1.806104 1.787992 11.162051 -10.950331 17.084740 6.390900 -4.313100 8.071000 -75.260050 -11.931498 41.641367 15.506277 -30.900615 -5.466698 -0.325829 -0.584106 -10.452353 -7.125000 0.000000 0.000000 85.395632 5.127835 63.005251 -43.071288 50.124815 -19.243271 0.295446 0.165009 -2.553547 7.125000 0.000000 0.000000 
5.088559 17.353117 23.974005 -178.025441 -4.293449 -163.965138 -3.816807 7.002403 3.810091 -1.539039 0.086959 2.013490 -6.983510 20.101643 -1.177230 0.335200 -3.720800 -10.292600 12.757428 18.636156 -28.269612 -4.186010 -14.121032 42.015287 -0.121089 -2.573923 -7.136454 -0.015400 0.802200 -2.204800 0.822605 -2.422067 -5.538494 -7.788327 -1.748349 1.839889 11.110480 -10.979478 17.364495 6.333200 -4.299300 8.196200 -75.326157 -11.876729 41.787471 15.581585 -31.004735 -5.504288 -0.320967 -0.583634 -10.473652 -7.125000 0.000000 0.000000 85.255518 5.272151 62.759923 -42.997413 50.072030 -19.220382 0.296341 0.172771 -2.582958 7.125000 0.000000 0.000000 
5.067486 17.340304 23.934611 -178.109425 -4.345144 -163.822485 -3.922520 7.154480 3.773162 -1.540826 0.076202 2.019646 -6.919624 19.950060 -1.166965 0.331700 -3.701200 -10.237500 12.639466 18.530083 -28.327287 -4.219048 -14.164556 42.135748 -0.208042 -2.398640 -7.485387 -0.019800 0.909000 -2.498400 0.869761 -2.374113 -5.524401 -7.682205 -1.698933 1.875493 11.088050 -10.996376 17.552691 6.296200 -4.286600 8.272100 -75.417012 -11.800950 41.947367 15.650870 -31.103283 -5.538246 -0.316426 -0.582310 -10.472226 -7.125000 0.000000 0.000000 85.125804 5.384163 62.573921 -42.940153 50.029404 -19.205262 0.296990 0.179996 -2.593737 7.125000 0.000000 0.000000 
5.047365 17.328232 23.891829 -178.156808 -4.386889 -163.705133 -3.980389 7.326753 3.760017 -1.538402 0.065376 2.027142 -6.845476 19.777045 -1.091557 0.328000 -3.680900 -10.180700 12.580353 18.427019 -28.336888 -4.245727 -14.199880 42.236866 -0.284415 -2.256824 -7.852463 -0.025000 1.020600 -2.805600 0.921156 -2.334431 -5.513206 -7.574154 -1.654391 1.901910 11.094354 -11.014664 17.648834 6.274300 -4.279000 8.305500 -75.522231 -11.725345 42.130374 15.707311 -31.186562 -5.564380 -0.312313 -0.580643 -10.458681 -7.125000 0.000000 0.000000 85.021335 5.472153 62.435416 -42.879887 49.987170 -19.184199 0.297688 0.185639 -2.578771 7.125000 0.000000 0.000000 
5.028304 17.317007 23.844917 -178.186209 -4.432703 -163.617534 -4.000553 7.501402 3.780231 -1.532863 0.055201 2.034525 -6.767431 19.599342 -0.954226 0.324400 -3.660800 -10.124200 12.562297 18.317273 -28.287983 -4.263159 -14.225953 42.310244 -0.351939 -2.146299 -8.245543 -0.030800 1.133500 -3.116300 0.977439 -2.316215 -5.507588 -7.454002 -1.622348 1.909653 11.133486 -11.032902 17.661607 6.272800 -4.276700 8.301000 -75.650546 -11.641930 42.310521 15.740544 -31.243711 -5.578183 -0.308777 -0.578724 -10.431609 -7.125000 0.000000 0.000000 84.939412 5.529197 62.362572 -42.802136 49.937611 -19.145886 0.298103 0.190255 -2.540456 7.125000 0.000000 0.000000 
5.010513 17.306840 23.793239 -178.215176 -4.474090 -163.553523 -4.005715 7.682517 3.832345 -1.525203 0.045458 2.041052 -6.690704 19.429672 -0.764467 0.320900 -3.641000 -10.068900 12.558484 18.207689 -28.179699 -4.270862 -14.242862 42.353281 -0.412470 -2.063394 -8.662334 -0.037500 1.249600 -3.436000 1.033340 -2.309927 -5.505632 -7.332882 -1.598774 1.914766 11.202790 -11.066480 17.599523 6.289400 -4.286500 8.263700 -75.791135 -11.563097 42.488579 15.750509 -31.274637 -5.579790 -0.305701 -0.577075 -10.400941 -7.125000 0.000000 0.000000 84.894641 5.563581 62.341753 -42.683704 49.869980 -19.074248 0.298230 0.193751 -2.481515 7.125000 0.000000 0.000000 
